<svg width="80" height="80" viewBox="0 0 80 80" fill="none" xmlns="http://www.w3.org/2000/svg">
<path d="M26.5312 6.39012C25.9399 5.81817 25.1473 5.50199 24.3249 5.50934C23.5024 5.51669 22.715 5.84652 22.1337 6.42793C21.5517 7.00986 21.2219 7.79667 21.2151 8.61912C21.2077 9.4416 21.5239 10.2342 22.0953 10.826L32.4262 21.1569H14.9015C12.4058 21.1569 10.0118 22.1485 8.24659 23.9138C6.48134 25.6785 5.48975 28.0724 5.48975 30.5687V65.079C5.48975 67.5752 6.48134 69.9686 8.24659 71.7339C10.0118 73.4986 12.4058 74.4907 14.9015 74.4907H65.0985C67.5942 74.4907 69.9882 73.4986 71.7534 71.7339C73.5181 69.9686 74.5102 67.5752 74.5102 65.079V30.5687C74.5102 28.0724 73.5181 25.6785 71.7534 23.9138C69.9882 22.1485 67.5942 21.1569 65.0985 21.1569H47.5738L57.9047 10.826C58.4761 10.2341 58.7923 9.44158 58.7855 8.61912C58.7781 7.79664 58.4477 7.00985 57.8663 6.42793C57.2844 5.84652 56.4976 5.5167 55.6751 5.50934C54.8527 5.50199 54.0601 5.81817 53.4688 6.39012L40.0005 19.8584L26.5312 6.39012ZM11.7642 30.5689C11.7642 29.737 12.0945 28.9387 12.6833 28.3505C13.2715 27.7622 14.0694 27.4319 14.9012 27.4319H65.0982C65.9301 27.4319 66.7279 27.7622 67.3162 28.3505C67.9044 28.9387 68.2353 29.7369 68.2353 30.5689V65.0792C68.2353 65.9111 67.9044 66.7089 67.3162 67.2971C66.7279 67.8859 65.9301 68.2163 65.0982 68.2163H14.9012C14.0693 68.2163 13.2715 67.8859 12.6833 67.2971C12.0945 66.7089 11.7642 65.9111 11.7642 65.0792V30.5689Z" fill="white"/>
<path d="M22.5975 57.542C21.0618 57.542 19.9144 57.1192 19.1551 56.2737C18.3959 55.411 18.0163 54.1341 18.0163 52.4431V40.7702C18.0163 40.1145 18.1802 39.6228 18.5081 39.2949C18.8532 38.9498 19.3449 38.7773 19.9834 38.7773C20.6045 38.7773 21.0791 38.9498 21.4069 39.2949C21.752 39.6228 21.9245 40.1145 21.9245 40.7702V52.2879C21.9245 52.9953 22.0712 53.5216 22.3645 53.8667C22.6751 54.1945 23.0806 54.3584 23.581 54.3584C23.7191 54.3584 23.8485 54.3498 23.9693 54.3326C24.09 54.3153 24.2195 54.3067 24.3575 54.3067C24.6336 54.2722 24.8234 54.3584 24.9269 54.5655C25.0477 54.7553 25.1081 55.1435 25.1081 55.7302C25.1081 56.2479 25.0045 56.6447 24.7975 56.9208C24.5904 57.1796 24.2712 57.3522 23.8398 57.4384C23.6673 57.4557 23.4689 57.4729 23.2445 57.4902C23.0202 57.5247 22.8045 57.542 22.5975 57.542ZM29.3789 57.4643C28.7404 57.4643 28.2487 57.2831 27.9036 56.9208C27.5757 56.5412 27.4118 56.0149 27.4118 55.342V46.4902C27.4118 45.8 27.5757 45.2737 27.9036 44.9114C28.2487 44.5318 28.7404 44.342 29.3789 44.342C30 44.342 30.4746 44.5318 30.8024 44.9114C31.1475 45.2737 31.32 45.8 31.32 46.4902V55.342C31.32 56.0149 31.1561 56.5412 30.8283 56.9208C30.5004 57.2831 30.0173 57.4643 29.3789 57.4643ZM29.3789 42.2196C28.6542 42.2196 28.0934 42.0557 27.6965 41.7278C27.3169 41.3828 27.1271 40.8996 27.1271 40.2784C27.1271 39.64 27.3169 39.1569 27.6965 38.829C28.0934 38.4839 28.6542 38.3114 29.3789 38.3114C30.1036 38.3114 30.6557 38.4839 31.0353 38.829C31.4149 39.1569 31.6048 39.64 31.6048 40.2784C31.6048 40.8996 31.4149 41.3828 31.0353 41.7278C30.6557 42.0557 30.1036 42.2196 29.3789 42.2196ZM40.4974 57.4902C39.997 57.4902 39.557 57.3608 39.1774 57.102C38.7978 56.8259 38.4958 56.4204 38.2715 55.8855L34.3632 46.8784C34.1734 46.4298 34.1044 46.0157 34.1562 45.6361C34.2079 45.2392 34.3891 44.9286 34.6997 44.7043C35.0276 44.4628 35.4762 44.342 36.0456 44.342C36.5115 44.342 36.8911 44.4541 37.1844 44.6784C37.4778 44.8855 37.7366 45.291 37.9609 45.8949L41.015 53.6596H40.1868L43.3703 45.869C43.6119 45.2824 43.8793 44.8855 44.1727 44.6784C44.466 44.4541 44.8715 44.342 45.3891 44.342C45.8378 44.342 46.1915 44.4628 46.4503 44.7043C46.7264 44.9286 46.8903 45.2306 46.9421 45.6102C47.0111 45.9898 46.9421 46.4039 46.735 46.8526L42.7491 55.8855C42.5248 56.4377 42.2229 56.8431 41.8432 57.102C41.4809 57.3608 41.0323 57.4902 40.4974 57.4902ZM56.0128 57.542C54.5116 57.542 53.2175 57.2745 52.1305 56.7396C51.0607 56.1875 50.2324 55.4196 49.6458 54.4361C49.0764 53.4353 48.7916 52.262 48.7916 50.9161C48.7916 49.6047 49.0677 48.4573 49.6199 47.4737C50.172 46.4729 50.9399 45.6965 51.9234 45.1443C52.9242 44.5749 54.0544 44.2902 55.314 44.2902C56.2285 44.2902 57.0567 44.4455 57.7987 44.7561C58.5407 45.0494 59.1791 45.4808 59.714 46.0502C60.2489 46.6024 60.6544 47.2839 60.9305 48.0949C61.2065 48.8886 61.3446 49.7773 61.3446 50.7608C61.3446 51.0886 61.2411 51.3388 61.034 51.5114C60.8269 51.6667 60.525 51.7443 60.1281 51.7443H52.0011V49.7255H58.5234L58.1093 50.0879C58.1093 49.3804 58.0058 48.7937 57.7987 48.3279C57.5916 47.8447 57.2897 47.4824 56.8928 47.2408C56.5132 46.9992 56.0387 46.8784 55.4693 46.8784C54.8309 46.8784 54.2873 47.0251 53.8387 47.3184C53.3901 47.6118 53.045 48.0345 52.8034 48.5867C52.5618 49.1388 52.4411 49.8031 52.4411 50.5796V50.7867C52.4411 52.098 52.743 53.0643 53.3469 53.6855C53.9681 54.3067 54.8826 54.6173 56.0905 54.6173C56.5046 54.6173 56.9791 54.5655 57.514 54.462C58.0489 54.3584 58.5493 54.1945 59.0152 53.9702C59.412 53.7804 59.7658 53.72 60.0764 53.789C60.3869 53.8408 60.6285 53.9788 60.8011 54.2031C60.9736 54.4275 61.0685 54.6863 61.0858 54.9796C61.1203 55.2729 61.0599 55.5663 60.9046 55.8596C60.7493 56.1357 60.4905 56.3686 60.1281 56.5584C59.5415 56.8863 58.8771 57.1279 58.1352 57.2831C57.4105 57.4557 56.703 57.542 56.0128 57.542Z" fill="white"/>
</svg>
